<svg width="318" height="318" viewBox="0 0 318 318" fill="none" xmlns="http://www.w3.org/2000/svg">
<path d="M274.83 25.9L176.92 102.72L198.39 49.07L274.83 25.9Z" fill="#E2761B" stroke="#E2761B" stroke-linecap="round" stroke-linejoin="round"/>
<path d="M42.97 25.9L140.16 103.44L119.41 49.07L42.97 25.9Z" fill="#E4761B" stroke="#E4761B" stroke-linecap="round" stroke-linejoin="round"/>
<path d="M235.03 226.11L205.56 277.34L268.56 297.07L286.76 227.19L235.03 226.11Z" fill="#E4761B" stroke="#E4761B" stroke-linecap="round" stroke-linejoin="round"/>
<path d="M31.34 227.19L49.44 297.07L112.44 277.34L82.97 226.11L31.34 227.19Z" fill="#E4761B" stroke="#E4761B" stroke-linecap="round" stroke-linejoin="round"/>
<path d="M108.12 139.95L89.3 169.96L151.76 173.2L149.24 106.32L108.12 139.95Z" fill="#E4761B" stroke="#E4761B" stroke-linecap="round" stroke-linejoin="round"/>
<path d="M209.68 139.95L168.02 105.6L166.04 173.2L228.4 169.96L209.68 139.95Z" fill="#E4761B" stroke="#E4761B" stroke-linecap="round" stroke-linejoin="round"/>
<path d="M112.44 277.34L147.44 256.53L117.08 227.73L112.44 277.34Z" fill="#E4761B" stroke="#E4761B" stroke-linecap="round" stroke-linejoin="round"/>
<path d="M170.36 256.53L205.56 277.34L200.72 227.73L170.36 256.53Z" fill="#E4761B" stroke="#E4761B" stroke-linecap="round" stroke-linejoin="round"/>
<path d="M205.56 277.34L170.36 256.53L173.6 284.25L173.24 296.35L205.56 277.34Z" fill="#D7C1B3" stroke="#D7C1B3" stroke-linecap="round" stroke-linejoin="round"/>
<path d="M112.44 277.34L144.76 296.35L144.5 284.25L147.44 256.53L112.44 277.34Z" fill="#D7C1B3" stroke="#D7C1B3" stroke-linecap="round" stroke-linejoin="round"/>
<path d="M145.48 209.27L116.2 198.97L136.84 187.59L145.48 209.27Z" fill="#233447" stroke="#233447" stroke-linecap="round" stroke-linejoin="round"/>
<path d="M172.32 209.27L180.96 187.59L201.7 198.97L172.32 209.27Z" fill="#233447" stroke="#233447" stroke-linecap="round" stroke-linejoin="round"/>
<path d="M112.44 277.34L117.28 226.11L82.97 227.19L112.44 277.34Z" fill="#CD6116" stroke="#CD6116" stroke-linecap="round" stroke-linejoin="round"/>
<path d="M200.72 226.11L205.56 277.34L235.03 227.19L200.72 226.11Z" fill="#CD6116" stroke="#CD6116" stroke-linecap="round" stroke-linejoin="round"/>
<path d="M228.4 169.96L166.04 173.2L172.32 209.27L180.96 187.59L201.7 198.97L228.4 169.96Z" fill="#CD6116" stroke="#CD6116" stroke-linecap="round" stroke-linejoin="round"/>
<path d="M116.2 198.97L136.84 187.59L145.48 209.27L151.76 173.2L89.3 169.96L116.2 198.97Z" fill="#CD6116" stroke="#CD6116" stroke-linecap="round" stroke-linejoin="round"/>
<path d="M89.3 169.96L117.08 227.73L116.2 198.97L89.3 169.96Z" fill="#E4751F" stroke="#E4751F" stroke-linecap="round" stroke-linejoin="round"/>
<path d="M201.7 198.97L200.72 227.73L228.4 169.96L201.7 198.97Z" fill="#E4751F" stroke="#E4751F" stroke-linecap="round" stroke-linejoin="round"/>
<path d="M151.76 173.2L145.48 209.27L153.2 252.21L155.54 195.73L151.76 173.2Z" fill="#E4751F" stroke="#E4751F" stroke-linecap="round" stroke-linejoin="round"/>
<path d="M166.04 173.2L162.36 195.63L164.6 252.21L172.32 209.27L166.04 173.2Z" fill="#E4751F" stroke="#E4751F" stroke-linecap="round" stroke-linejoin="round"/>
<path d="M172.32 209.27L164.6 252.21L170.36 256.53L200.72 227.73L201.7 198.97L172.32 209.27Z" fill="#F6851B" stroke="#F6851B" stroke-linecap="round" stroke-linejoin="round"/>
<path d="M116.2 198.97L117.08 227.73L147.44 256.53L153.2 252.21L145.48 209.27L116.2 198.97Z" fill="#F6851B" stroke="#F6851B" stroke-linecap="round" stroke-linejoin="round"/>
<path d="M173.24 296.35L173.6 284.25L170.66 281.67H147.14L144.5 284.25L144.76 296.35L112.44 277.34L127.92 290.15L146.84 303.5H170.96L189.98 290.15L205.56 277.34L173.24 296.35Z" fill="#C0AD9E" stroke="#C0AD9E" stroke-linecap="round" stroke-linejoin="round"/>
<path d="M170.36 256.53L164.6 252.21H153.2L147.44 256.53L144.5 284.25L147.14 281.67H170.66L173.6 284.25L170.36 256.53Z" fill="#161616" stroke="#161616" stroke-linecap="round" stroke-linejoin="round"/>
<path d="M284.24 110.4L293.6 59.17L274.83 25.9L170.36 101.28L209.68 139.95L267.48 158.96L280.46 142.3L274.92 138.16L283.8 129.68L277 124.46L285.88 117.44L284.24 110.4Z" fill="#763D16" stroke="#763D16" stroke-linecap="round" stroke-linejoin="round"/>
<path d="M24.4 59.17L33.76 110.4L32.02 117.44L41 124.46L34.1 129.68L42.98 138.16L37.44 142.3L50.32 158.96L108.12 139.95L147.44 101.28L42.97 25.9L24.4 59.17Z" fill="#763D16" stroke="#763D16" stroke-linecap="round" stroke-linejoin="round"/>
<path d="M267.48 158.96L209.68 139.95L228.4 169.96L200.72 227.73L235.03 227.19H286.76L267.48 158.96Z" fill="#F6851B" stroke="#F6851B" stroke-linecap="round" stroke-linejoin="round"/>
<path d="M108.12 139.95L50.32 158.96L31.34 227.19H82.97L117.08 227.73L89.3 169.96L108.12 139.95Z" fill="#F6851B" stroke="#F6851B" stroke-linecap="round" stroke-linejoin="round"/>
<path d="M166.04 173.2L170.36 101.28L198.49 49.07H119.41L147.44 101.28L151.76 173.2L153.1 195.83L153.2 252.21H164.6L164.8 195.83L166.04 173.2Z" fill="#F6851B" stroke="#F6851B" stroke-linecap="round" stroke-linejoin="round"/>
</svg>

