<svg width="300" height="185" viewBox="0 0 300 185" fill="none" xmlns="http://www.w3.org/2000/svg">
<path d="M61.4385 36.5904C113.93 -12.1968 198.782 -12.1968 251.274 36.5904L256.277 41.1099C258.5 43.1249 258.5 46.5105 256.277 48.5255L234.309 68.6866C233.197 69.6941 231.418 69.6941 230.306 68.6866L223.414 62.4348C186.106 28.5486 126.606 28.5486 89.2984 62.4348L81.8506 69.1391C80.7385 70.1466 78.9596 70.1466 77.8475 69.1391L55.8795 48.978C53.6561 46.963 53.6561 43.5774 55.8795 41.5624L61.4385 36.5904ZM280.577 63.4423L300 81.0559C302.223 83.0709 302.223 86.4565 300 88.4715L218.355 162.863C216.131 164.878 212.573 164.878 210.349 162.863L152.704 110.44C152.148 109.937 151.259 109.937 150.703 110.44L93.0578 162.863C90.8344 164.878 87.2766 164.878 85.0531 162.863L3.40825 88.4715C1.18481 86.4565 1.18481 83.0709 3.40825 81.0559L22.8311 63.4423C25.0545 61.4273 28.6123 61.4273 30.8358 63.4423L88.4811 115.865C89.0369 116.368 89.9262 116.368 90.482 115.865L148.127 63.4423C150.35 61.4273 153.908 61.4273 156.132 63.4423L213.777 115.865C214.333 116.368 215.222 116.368 215.778 115.865L273.423 63.4423C275.647 61.4273 279.204 61.4273 281.428 63.4423H280.577Z" fill="#3B99FC"/>
</svg>

